<svg xmlns="http://www.w3.org/2000/svg" xmlns:xlink="http://www.w3.org/1999/xlink" width="500" zoomAndPan="magnify" viewBox="0 0 375 127.500001" height="170" preserveAspectRatio="xMidYMid meet" version="1.0"><defs><g/><clipPath id="8c64c6ff1a"><path d="M 302.78125 0 L 372 0 L 372 77.695312 L 302.78125 77.695312 Z M 302.78125 0 " clip-rule="nonzero"/></clipPath></defs><g clip-path="url(#8c64c6ff1a)"><path fill="#737373" d="M 310.039062 63.773438 C 310.039062 63.773438 308.457031 62.941406 306.648438 63.925781 C 306.648438 63.925781 308.441406 62.570312 310.128906 62.859375 C 310.128906 62.859375 309.320312 60.660156 305.8125 60.328125 C 305.8125 60.328125 308.726562 59.46875 310.929688 61.09375 C 310.929688 61.09375 307.464844 55.472656 308.566406 51.042969 C 308.566406 51.042969 309.773438 53.324219 311.785156 53.726562 C 311.785156 53.726562 309.246094 48.972656 310.332031 46.160156 C 311.414062 43.347656 317.40625 39.207031 317.40625 39.207031 C 317.40625 39.207031 317.800781 42.265625 320.65625 45.125 C 320.65625 45.125 319.085938 40.894531 319.488281 37.652344 C 319.894531 34.410156 331 31.019531 331 31.019531 C 331 31.019531 331.078125 34.851562 333.640625 36.582031 C 333.640625 36.582031 332.554688 30.808594 334.339844 29.894531 C 336.125 28.980469 347.484375 24.78125 349.539062 21.085938 L 350.113281 26.871094 C 350.113281 26.871094 349.847656 22.976562 352.398438 20.628906 C 354.953125 18.285156 361.507812 14.808594 362.0625 10.34375 L 362.972656 14.921875 L 363.402344 9.808594 C 363.402344 9.808594 369.878906 5.210938 368.695312 0 C 368.695312 0 374.171875 7.003906 369.257812 20.882812 L 360.726562 24.601562 L 367.886719 23.085938 C 367.886719 23.085938 363.539062 32.804688 349.886719 33.886719 C 349.886719 33.886719 352.824219 34.621094 358.683594 32.820312 C 358.683594 32.820312 353.757812 44.007812 336.050781 44.960938 L 345.035156 45.339844 C 345.035156 45.339844 338.527344 57.527344 323.660156 55.082031 C 323.660156 55.082031 326.9375 57.449219 330.644531 56.816406 C 330.644531 56.816406 325.988281 62.496094 317.039062 59.746094 C 317.039062 59.746094 318.472656 60.21875 318.644531 61.957031 C 318.644531 61.957031 316.984375 60.085938 315.195312 60.59375 C 315.195312 60.59375 316.539062 61.347656 316.117188 63.257812 C 316.117188 63.257812 315.679688 61.578125 313.84375 61.636719 L 302.785156 77.601562 C 302.785156 77.601562 303.226562 75.199219 304.191406 73.460938 C 305.152344 71.722656 313.398438 58.296875 326.394531 48.3125 C 339.386719 38.328125 353.550781 30.972656 356.652344 24.710938 C 356.652344 24.710938 351.25 30.691406 340.386719 36.980469 C 329.523438 43.265625 315.710938 54.398438 310.039062 63.773438 " fill-opacity="1" fill-rule="nonzero"/></g><g fill="#737373" fill-opacity="1"><g transform="translate(55.106281, 85.182829)"><g><path d="M 51.734375 -43.921875 C 52.816406 -41.992188 53.585938 -40.238281 54.046875 -38.65625 C 54.515625 -37.070312 54.847656 -35.445312 55.046875 -33.78125 C 55.410156 -30.632812 55.390625 -27.53125 54.984375 -24.46875 C 54.578125 -21.414062 53.890625 -18.398438 52.921875 -15.421875 C 51.191406 -10.128906 48.691406 -5.285156 45.421875 -0.890625 C 42.160156 3.492188 38.210938 7.488281 33.578125 11.09375 C 30.085938 13.820312 26.332031 16.238281 22.3125 18.34375 C 21.863281 18.5625 21.488281 18.804688 21.1875 19.078125 C 20.882812 19.359375 20.757812 19.742188 20.8125 20.234375 C 20.8125 20.597656 20.628906 20.890625 20.265625 21.109375 C 20.023438 21.253906 19.785156 21.320312 19.546875 21.3125 C 19.316406 21.300781 19.140625 21.1875 19.015625 20.96875 C 18.867188 20.65625 18.703125 20.472656 18.515625 20.421875 C 18.335938 20.367188 18.085938 20.414062 17.765625 20.5625 C 17.117188 20.863281 16.460938 21.144531 15.796875 21.40625 C 14.796875 21.820312 13.503906 22.210938 11.921875 22.578125 C 10.335938 22.941406 9.164062 23.050781 8.40625 22.90625 C 7.695312 22.757812 7.210938 22.453125 6.953125 21.984375 C 6.703125 21.523438 6.710938 21.003906 6.984375 20.421875 C 7.453125 19.515625 8.097656 18.738281 8.921875 18.09375 C 10.628906 16.644531 12.507812 15.375 14.5625 14.28125 C 15.75 13.59375 16.96875 12.957031 18.21875 12.375 C 19 12.039062 19.390625 11.488281 19.390625 10.71875 C 19.390625 9.96875 19.410156 9.21875 19.453125 8.46875 C 19.484375 7.875 19.507812 7.285156 19.53125 6.703125 C 19.601562 0.191406 19.675781 -6.3125 19.75 -12.8125 C 19.769531 -15.289062 19.769531 -17.769531 19.75 -20.25 C 19.769531 -22.300781 19.546875 -24.332031 19.078125 -26.34375 C 18.960938 -26.769531 18.921875 -27.195312 18.953125 -27.625 C 19.015625 -27.988281 19.28125 -28.210938 19.75 -28.296875 C 20.195312 -28.367188 20.539062 -28.234375 20.78125 -27.890625 C 21.164062 -27.179688 21.429688 -26.441406 21.578125 -25.671875 C 22.046875 -23.128906 22.238281 -20.578125 22.15625 -18.015625 C 22.0625 -10.972656 21.929688 -3.914062 21.765625 3.15625 C 21.742188 4.625 21.679688 6.078125 21.578125 7.515625 C 21.535156 8.171875 21.5 8.84375 21.46875 9.53125 C 21.46875 9.570312 21.46875 9.617188 21.46875 9.671875 C 21.4375 9.816406 21.4375 9.960938 21.46875 10.109375 C 21.5 10.253906 21.585938 10.382812 21.734375 10.5 C 21.921875 10.5625 22.101562 10.5625 22.28125 10.5 C 22.46875 10.4375 22.640625 10.367188 22.796875 10.296875 C 22.878906 10.265625 22.960938 10.222656 23.046875 10.171875 C 27.160156 8.492188 31.414062 7.128906 35.8125 6.078125 C 36.757812 5.859375 37.523438 5.410156 38.109375 4.734375 C 41.941406 0.753906 45.242188 -4.015625 48.015625 -9.578125 C 50.796875 -15.148438 52.304688 -21.253906 52.546875 -27.890625 C 52.796875 -34.523438 51.28125 -40.039062 48 -44.4375 C 44.726562 -48.832031 40.269531 -51.242188 34.625 -51.671875 C 31.53125 -51.890625 27.90625 -51.46875 23.75 -50.40625 C 19.59375 -49.34375 15.378906 -47.554688 11.109375 -45.046875 C 6.847656 -42.535156 3.140625 -39.957031 -0.015625 -37.3125 C -3.171875 -34.664062 -5.9375 -31.628906 -8.3125 -28.203125 C -10.695312 -24.773438 -12.328125 -21.707031 -13.203125 -19 C -13.566406 -17.632812 -13.625 -16.242188 -13.375 -14.828125 C -13.3125 -14.335938 -13.148438 -13.90625 -12.890625 -13.53125 C -12.628906 -13.15625 -12.234375 -12.84375 -11.703125 -12.59375 C -11.378906 -12.457031 -11.226562 -12.285156 -11.25 -12.078125 C -11.28125 -11.867188 -11.453125 -11.6875 -11.765625 -11.53125 C -12.898438 -11.082031 -13.84375 -11.285156 -14.59375 -12.140625 C -15.269531 -12.953125 -15.648438 -13.875 -15.734375 -14.90625 C -15.867188 -16.5625 -15.671875 -18.160156 -15.140625 -19.703125 C -13.628906 -24.554688 -11.15625 -28.96875 -7.71875 -32.9375 C -4.476562 -36.664062 -0.835938 -39.972656 3.203125 -42.859375 C 7.242188 -45.753906 11.722656 -48.175781 16.640625 -50.125 C 19.421875 -51.21875 22.28125 -52.050781 25.21875 -52.625 C 28.15625 -53.207031 31.195312 -53.445312 34.34375 -53.34375 C 36.050781 -53.300781 37.734375 -53.097656 39.390625 -52.734375 C 42.390625 -52.066406 44.925781 -50.914062 47 -49.28125 C 49.070312 -47.644531 50.648438 -45.859375 51.734375 -43.921875 Z M 18.765625 16.75 C 18.785156 16.082031 18.796875 15.40625 18.796875 14.71875 C 18.796875 14.46875 18.789062 14.265625 18.78125 14.109375 C 18.769531 13.953125 18.707031 13.859375 18.59375 13.828125 C 18.488281 13.804688 18.382812 13.820312 18.28125 13.875 C 17.039062 14.457031 15.84375 15.097656 14.6875 15.796875 C 13.53125 16.492188 12.453125 17.28125 11.453125 18.15625 C 11.035156 18.539062 10.679688 18.96875 10.390625 19.4375 C 10.242188 19.675781 10.238281 19.890625 10.375 20.078125 C 10.507812 20.273438 10.726562 20.40625 11.03125 20.46875 C 11.75 20.582031 12.421875 20.539062 13.046875 20.34375 C 14.347656 19.9375 15.644531 19.488281 16.9375 19 C 16.9375 18.96875 16.945312 18.953125 16.96875 18.953125 C 17.28125 18.828125 17.597656 18.679688 17.921875 18.515625 C 18.023438 18.472656 18.109375 18.425781 18.171875 18.375 C 18.492188 18.207031 18.675781 17.960938 18.71875 17.640625 C 18.75 17.347656 18.765625 17.050781 18.765625 16.75 Z M 27.21875 13.40625 C 29.289062 12.132812 31.25 10.789062 33.09375 9.375 C 33.707031 8.9375 34.09375 8.578125 34.25 8.296875 C 34.414062 8.015625 34.351562 7.90625 34.0625 7.96875 C 33.78125 8.03125 33.390625 8.132812 32.890625 8.28125 C 29.492188 9.332031 25.84375 10.679688 21.9375 12.328125 C 21.625 12.453125 21.441406 12.625 21.390625 12.84375 C 21.109375 14.332031 21.007812 15.34375 21.09375 15.875 C 21.175781 16.414062 21.390625 16.617188 21.734375 16.484375 C 22.078125 16.359375 22.691406 16.035156 23.578125 15.515625 C 24.460938 15.003906 25.675781 14.300781 27.21875 13.40625 Z M 27.21875 13.40625 "/></g></g></g><g fill="#737373" fill-opacity="1"><g transform="translate(109.599716, 85.182829)"><g><path d="M 1.609375 -1.484375 C 1.390625 -1.460938 1.144531 -1.613281 0.875 -1.9375 C 0.613281 -2.269531 0.382812 -2.84375 0.1875 -3.65625 C -0.0078125 -4.476562 -0.0820312 -5.609375 -0.03125 -7.046875 C -0.03125 -7.191406 -0.03125 -7.375 -0.03125 -7.59375 C -0.03125 -8.144531 -0.0078125 -8.796875 0.03125 -9.546875 C 0.0820312 -10.296875 0.191406 -10.96875 0.359375 -11.5625 C 0.523438 -12.15625 0.78125 -12.515625 1.125 -12.640625 C 2.15625 -12.910156 2.71875 -12.539062 2.8125 -11.53125 C 2.8125 -11.226562 2.800781 -10.914062 2.78125 -10.59375 C 2.757812 -10.445312 2.75 -10.289062 2.75 -10.125 C 2.71875 -9.65625 2.691406 -9.203125 2.671875 -8.765625 C 2.671875 -8.367188 2.65625 -7.988281 2.625 -7.625 C 2.625 -7.382812 2.625 -7.03125 2.625 -6.5625 C 2.65625 -5.90625 2.660156 -5.191406 2.640625 -4.421875 C 2.628906 -3.660156 2.546875 -2.992188 2.390625 -2.421875 C 2.234375 -1.847656 1.972656 -1.535156 1.609375 -1.484375 Z M 2.59375 -16.078125 C 2.46875 -15.953125 2.296875 -15.875 2.078125 -15.84375 C 1.867188 -15.8125 1.703125 -15.828125 1.578125 -15.890625 C 1.453125 -16.015625 1.367188 -16.148438 1.328125 -16.296875 C 1.296875 -16.453125 1.28125 -16.632812 1.28125 -16.84375 C 1.300781 -16.894531 1.3125 -16.941406 1.3125 -16.984375 C 1.332031 -17.191406 1.382812 -17.390625 1.46875 -17.578125 C 1.6875 -18.140625 2.132812 -18.378906 2.8125 -18.296875 C 3.050781 -18.273438 3.234375 -18.175781 3.359375 -18 C 3.484375 -17.832031 3.519531 -17.644531 3.46875 -17.4375 C 3.300781 -16.914062 3.007812 -16.460938 2.59375 -16.078125 Z M 2.59375 -16.078125 "/></g></g></g><g fill="#737373" fill-opacity="1"><g transform="translate(114.121441, 85.182829)"><g><path d="M 4.265625 -12.171875 C 5.710938 -12.234375 6.707031 -11.5625 7.25 -10.15625 C 7.632812 -9.125 7.738281 -8.023438 7.5625 -6.859375 C 7.394531 -5.691406 7.007812 -4.71875 6.40625 -3.9375 C 5.8125 -3.226562 5.09375 -2.769531 4.25 -2.5625 C 3.414062 -2.363281 2.59375 -2.429688 1.78125 -2.765625 C 0.976562 -3.109375 0.347656 -3.773438 -0.109375 -4.765625 C -0.484375 -5.648438 -0.609375 -6.546875 -0.484375 -7.453125 C -0.378906 -8.203125 -0.164062 -8.929688 0.15625 -9.640625 C 0.519531 -10.515625 1.0625 -11.148438 1.78125 -11.546875 C 2.5 -11.941406 3.328125 -12.148438 4.265625 -12.171875 Z M 3.625 -3.75 C 4.226562 -4.125 4.664062 -4.65625 4.9375 -5.34375 C 5.207031 -6.039062 5.351562 -6.785156 5.375 -7.578125 C 5.40625 -8.367188 5.34375 -9.109375 5.1875 -9.796875 C 4.976562 -10.742188 4.695312 -11.207031 4.34375 -11.1875 C 3.988281 -11.175781 3.617188 -10.859375 3.234375 -10.234375 C 2.859375 -9.617188 2.53125 -8.875 2.25 -8 C 1.96875 -7.125 1.796875 -6.28125 1.734375 -5.46875 C 1.671875 -4.664062 1.78125 -4.082031 2.0625 -3.71875 C 2.351562 -3.351562 2.875 -3.363281 3.625 -3.75 Z M 3.625 -3.75 "/></g></g></g><g fill="#737373" fill-opacity="1"><g transform="translate(123.048529, 85.182829)"><g/></g></g><g fill="#737373" fill-opacity="1"><g transform="translate(131.493515, 85.182829)"><g><path d="M 47.09375 -10.078125 C 47.21875 -10.035156 47.320312 -9.976562 47.40625 -9.90625 C 47.5 -9.832031 47.53125 -9.734375 47.5 -9.609375 C 47.445312 -9.484375 47.375 -9.363281 47.28125 -9.25 C 47.257812 -9.21875 47.234375 -9.175781 47.203125 -9.125 C 47.191406 -9.101562 47.164062 -9.085938 47.125 -9.078125 C 47.082031 -9.066406 47.050781 -9.0625 47.03125 -9.0625 C 46.25 -9.082031 45.753906 -8.875 45.546875 -8.4375 C 45.335938 -8 45.21875 -7.4375 45.1875 -6.75 C 44.976562 -1.96875 44.734375 2.796875 44.453125 7.546875 C 44.390625 8.597656 44.328125 9.65625 44.265625 10.71875 C 44.234375 11.289062 44.148438 11.84375 44.015625 12.375 C 43.910156 12.8125 43.613281 13.039062 43.125 13.0625 C 43.019531 13.0625 42.914062 13.046875 42.8125 13.015625 C 42.71875 12.984375 42.640625 12.898438 42.578125 12.765625 C 42.179688 11.941406 42.160156 8.128906 42.515625 1.328125 C 42.816406 -4.660156 42.625 -7.875 41.9375 -8.3125 C 41.476562 -8.613281 40.347656 -8.703125 38.546875 -8.578125 L 8.328125 -6.4375 C 8.160156 -6.425781 7.976562 -6.421875 7.78125 -6.421875 C 7.757812 -6.421875 7.738281 -6.421875 7.71875 -6.421875 C 7.082031 -6.453125 6.128906 -3.96875 4.859375 1.03125 C 3.585938 6.03125 2.75 9.664062 2.34375 11.9375 C 1.945312 14.207031 1.320312 15.488281 0.46875 15.78125 C 0.34375 15.820312 0.21875 15.851562 0.09375 15.875 C -0.0195312 15.90625 -0.148438 15.894531 -0.296875 15.84375 C -0.460938 15.78125 -0.578125 15.679688 -0.640625 15.546875 C -0.703125 15.410156 -0.734375 15.28125 -0.734375 15.15625 C -0.734375 15.082031 -0.734375 15.003906 -0.734375 14.921875 C -0.710938 14.148438 -0.632812 13.390625 -0.5 12.640625 C 0.507812 7.171875 1.898438 1.835938 3.671875 -3.359375 C 3.722656 -3.523438 3.785156 -3.707031 3.859375 -3.90625 C 4.015625 -4.363281 4.148438 -4.820312 4.265625 -5.28125 C 4.410156 -5.820312 4.195312 -6.082031 3.625 -6.0625 C 2.488281 -6.007812 1.375 -5.941406 0.28125 -5.859375 C 0.21875 -5.835938 0.144531 -5.820312 0.0625 -5.8125 C -0.769531 -5.757812 -1.609375 -5.703125 -2.453125 -5.640625 C -4.046875 -5.503906 -5.632812 -5.382812 -7.21875 -5.28125 C -7.238281 -5.28125 -7.257812 -5.28125 -7.28125 -5.28125 C -8.238281 -5.164062 -9.203125 -5.207031 -10.171875 -5.40625 C -10.273438 -5.425781 -10.375 -5.46875 -10.46875 -5.53125 C -10.5625 -5.59375 -10.601562 -5.679688 -10.59375 -5.796875 C -10.582031 -6.023438 -10.503906 -6.195312 -10.359375 -6.3125 C -10.210938 -6.4375 -10.050781 -6.515625 -9.875 -6.546875 C -9.707031 -6.578125 -9.535156 -6.59375 -9.359375 -6.59375 C -9.296875 -6.59375 -9.234375 -6.59375 -9.171875 -6.59375 C -7.710938 -6.71875 -6.238281 -6.835938 -4.75 -6.953125 C -2 -7.160156 0.765625 -7.34375 3.546875 -7.5 C 4.660156 -7.5625 5.40625 -8.109375 5.78125 -9.140625 C 8.894531 -17.679688 12.5625 -25.953125 16.78125 -33.953125 C 18.144531 -36.566406 19.617188 -39.128906 21.203125 -41.640625 C 22.796875 -44.160156 24.5 -46.566406 26.3125 -48.859375 C 27.90625 -50.878906 29.671875 -52.726562 31.609375 -54.40625 C 32.671875 -55.332031 33.867188 -56.070312 35.203125 -56.625 C 35.890625 -56.894531 36.625 -57.046875 37.40625 -57.078125 C 38.820312 -57.109375 40.035156 -56.539062 41.046875 -55.375 C 41.890625 -54.382812 42.53125 -53.304688 42.96875 -52.140625 C 43.800781 -49.921875 44.378906 -47.664062 44.703125 -45.375 C 45.203125 -41.832031 45.5 -38.285156 45.59375 -34.734375 C 45.695312 -31.046875 45.726562 -27.363281 45.6875 -23.6875 C 45.65625 -20.007812 45.601562 -16.34375 45.53125 -12.6875 C 45.53125 -12.601562 45.523438 -12.523438 45.515625 -12.453125 C 45.503906 -12.285156 45.492188 -12.117188 45.484375 -11.953125 C 45.441406 -11.410156 45.46875 -10.894531 45.5625 -10.40625 C 45.726562 -10.28125 45.890625 -10.207031 46.046875 -10.1875 C 46.210938 -10.164062 46.367188 -10.160156 46.515625 -10.171875 C 46.710938 -10.179688 46.90625 -10.148438 47.09375 -10.078125 Z M 42.796875 -15.96875 C 42.816406 -16.625 42.828125 -17.28125 42.828125 -17.9375 C 42.828125 -21.28125 42.804688 -24.628906 42.765625 -27.984375 C 42.722656 -31.335938 42.609375 -34.691406 42.421875 -38.046875 C 42.242188 -41.296875 41.851562 -44.546875 41.25 -47.796875 C 40.957031 -49.328125 40.492188 -50.832031 39.859375 -52.3125 C 39.515625 -53.125 39.046875 -53.851562 38.453125 -54.5 C 37.628906 -55.394531 36.695312 -55.65625 35.65625 -55.28125 C 34.800781 -54.96875 34.035156 -54.507812 33.359375 -53.90625 C 32.109375 -52.800781 30.9375 -51.585938 29.84375 -50.265625 C 28.175781 -48.296875 26.632812 -46.222656 25.21875 -44.046875 C 23.8125 -41.878906 22.488281 -39.640625 21.25 -37.328125 C 18.90625 -32.960938 16.726562 -28.492188 14.71875 -23.921875 C 12.707031 -19.359375 10.835938 -14.707031 9.109375 -9.96875 C 9.078125 -9.894531 9.046875 -9.828125 9.015625 -9.765625 C 8.921875 -9.554688 8.859375 -9.296875 8.828125 -8.984375 C 8.796875 -8.671875 8.992188 -8.523438 9.421875 -8.546875 C 29.128906 -9.660156 39.859375 -10.257812 41.609375 -10.34375 C 42.097656 -10.363281 42.414062 -10.445312 42.5625 -10.59375 C 42.71875 -10.738281 42.800781 -11.070312 42.8125 -11.59375 C 42.820312 -12.769531 42.816406 -13.957031 42.796875 -15.15625 C 42.796875 -15.425781 42.796875 -15.695312 42.796875 -15.96875 Z M 42.796875 -15.96875 "/></g></g></g><g fill="#737373" fill-opacity="1"><g transform="translate(180.25168, 85.182829)"><g><path d="M 10.609375 -7.96875 C 10.816406 -8.394531 10.957031 -8.59375 11.03125 -8.5625 C 11.113281 -8.53125 11.132812 -8.351562 11.09375 -8.03125 C 11.050781 -7.71875 10.984375 -7.363281 10.890625 -6.96875 C 10.742188 -6.351562 10.492188 -5.644531 10.140625 -4.84375 C 9.785156 -4.039062 9.390625 -3.3125 8.953125 -2.65625 C 8.316406 -1.75 7.523438 -1.066406 6.578125 -0.609375 C 5.628906 -0.148438 4.769531 -0.0351562 4 -0.265625 C 3.226562 -0.492188 2.78125 -1.21875 2.65625 -2.4375 C 2.632812 -3.457031 2.722656 -4.578125 2.921875 -5.796875 C 2.992188 -6.304688 3.066406 -6.804688 3.140625 -7.296875 C 3.140625 -7.472656 3.09375 -7.609375 3 -7.703125 C 2.914062 -7.796875 2.800781 -7.832031 2.65625 -7.8125 C 2.5625 -7.8125 2.453125 -7.8125 2.328125 -7.8125 C 1.710938 -7.707031 1.09375 -7.71875 0.46875 -7.84375 C -0.289062 -8.0625 -0.726562 -8.4375 -0.84375 -8.96875 C -0.96875 -9.5 -0.957031 -10.1875 -0.8125 -11.03125 C -0.738281 -11.644531 -0.507812 -12.101562 -0.125 -12.40625 C 0.25 -12.71875 0.691406 -12.84375 1.203125 -12.78125 C 1.910156 -12.71875 2.25 -12.445312 2.21875 -11.96875 C 2.195312 -11.488281 2.066406 -10.976562 1.828125 -10.4375 C 1.609375 -9.988281 1.492188 -9.609375 1.484375 -9.296875 C 1.472656 -8.992188 1.734375 -8.890625 2.265625 -8.984375 C 2.378906 -9.015625 2.507812 -9.050781 2.65625 -9.09375 C 2.851562 -9.164062 3.078125 -9.234375 3.328125 -9.296875 C 3.585938 -9.359375 3.925781 -9.375 4.34375 -9.34375 C 4.832031 -9.320312 5.15625 -9.097656 5.3125 -8.671875 C 5.46875 -8.242188 5.535156 -7.707031 5.515625 -7.0625 C 5.492188 -6.414062 5.4375 -5.765625 5.34375 -5.109375 C 5.21875 -4.273438 5.15625 -3.5625 5.15625 -2.96875 C 5.15625 -2.375 5.328125 -2.023438 5.671875 -1.921875 C 6.117188 -1.804688 6.796875 -2.222656 7.703125 -3.171875 C 8.609375 -4.117188 9.578125 -5.71875 10.609375 -7.96875 Z M 10.609375 -7.96875 "/></g></g></g><g fill="#737373" fill-opacity="1"><g transform="translate(190.425561, 85.182829)"><g><path d="M 9.515625 -10.984375 C 10.023438 -11.046875 10.378906 -10.953125 10.578125 -10.703125 C 10.742188 -10.441406 10.8125 -9.515625 10.78125 -7.921875 C 10.757812 -6.335938 10.679688 -4.492188 10.546875 -2.390625 C 10.421875 -0.296875 10.269531 1.644531 10.09375 3.4375 C 9.925781 5.226562 9.789062 6.476562 9.6875 7.1875 C 8.976562 11.25 7.707031 14.644531 5.875 17.375 C 4.050781 20.113281 1.96875 22.226562 -0.375 23.71875 C -2.726562 25.207031 -5.046875 26.109375 -7.328125 26.421875 C -9.609375 26.734375 -11.546875 26.507812 -13.140625 25.75 C -14.742188 25 -15.695312 23.738281 -16 21.96875 C -16.300781 20.195312 -15.660156 17.96875 -14.078125 15.28125 C -12.492188 12.601562 -9.671875 9.515625 -5.609375 6.015625 C -3.984375 4.671875 -1.738281 3.046875 1.125 1.140625 C 3.988281 -0.765625 6.257812 -2.050781 7.9375 -2.71875 C 7.96875 -3.039062 7.992188 -3.382812 8.015625 -3.75 C 7.328125 -2.96875 6.625 -2.515625 5.90625 -2.390625 C 5.1875 -2.273438 4.519531 -2.265625 3.90625 -2.359375 C 3.863281 -2.359375 3.832031 -2.359375 3.8125 -2.359375 C 2.707031 -2.503906 1.84375 -3.007812 1.21875 -3.875 C 0.601562 -4.75 0.207031 -5.738281 0.03125 -6.84375 C -0.132812 -7.957031 -0.0859375 -8.953125 0.171875 -9.828125 C 0.441406 -10.703125 0.941406 -11.226562 1.671875 -11.40625 C 1.972656 -11.445312 2.304688 -11.472656 2.671875 -11.484375 C 3.035156 -11.492188 3.335938 -11.453125 3.578125 -11.359375 C 3.828125 -11.265625 3.925781 -11.066406 3.875 -10.765625 C 3.625 -9.890625 3.484375 -8.921875 3.453125 -7.859375 C 3.421875 -6.804688 3.515625 -5.882812 3.734375 -5.09375 C 3.953125 -4.300781 4.335938 -3.875 4.890625 -3.8125 C 5.453125 -3.75 6.210938 -4.269531 7.171875 -5.375 C 7.609375 -5.925781 7.910156 -6.519531 8.078125 -7.15625 C 8.078125 -7.832031 8.066406 -8.476562 8.046875 -9.09375 C 8.023438 -9.65625 8.015625 -10.128906 8.015625 -10.515625 C 8.140625 -10.710938 8.335938 -10.835938 8.609375 -10.890625 C 8.890625 -10.953125 9.140625 -10.984375 9.359375 -10.984375 C 9.410156 -10.984375 9.460938 -10.984375 9.515625 -10.984375 Z M 7.859375 0.203125 C 7.859375 0.179688 7.859375 0.148438 7.859375 0.109375 C 7.878906 -0.0234375 7.894531 -0.207031 7.90625 -0.4375 C 7.925781 -0.675781 7.910156 -0.863281 7.859375 -1 C 7.816406 -1.132812 7.71875 -1.148438 7.5625 -1.046875 C 7.394531 -0.921875 7.203125 -0.785156 6.984375 -0.640625 C 5.578125 0.304688 3.726562 1.632812 1.4375 3.34375 C -0.84375 5.050781 -3.128906 6.976562 -5.421875 9.125 C -5.867188 9.5625 -6.515625 10.210938 -7.359375 11.078125 C -8.203125 11.941406 -9.085938 12.925781 -10.015625 14.03125 C -10.941406 15.144531 -11.753906 16.289062 -12.453125 17.46875 C -13.148438 18.65625 -13.582031 19.769531 -13.75 20.8125 C -13.925781 21.863281 -13.691406 22.769531 -13.046875 23.53125 C -12.191406 24.4375 -10.957031 24.828125 -9.34375 24.703125 C -7.726562 24.578125 -5.953125 23.96875 -4.015625 22.875 C -2.085938 21.78125 -0.238281 20.203125 1.53125 18.140625 C 3.3125 16.078125 4.785156 13.546875 5.953125 10.546875 C 7.128906 7.546875 7.765625 4.097656 7.859375 0.203125 Z M 7.859375 0.203125 "/></g></g></g><g fill="#737373" fill-opacity="1"><g transform="translate(203.841126, 85.182829)"><g><path d="M 24.578125 -9.609375 C 24.773438 -9.878906 24.984375 -10.070312 25.203125 -10.1875 C 25.421875 -10.3125 25.550781 -10.3125 25.59375 -10.1875 C 25.644531 -10.070312 25.523438 -9.78125 25.234375 -9.3125 C 24.578125 -8.332031 23.613281 -7.40625 22.34375 -6.53125 C 21.082031 -5.65625 19.679688 -4.90625 18.140625 -4.28125 C 16.609375 -3.664062 15.109375 -3.257812 13.640625 -3.0625 C 12.179688 -2.863281 10.941406 -2.957031 9.921875 -3.34375 C 8.910156 -3.738281 8.285156 -4.507812 8.046875 -5.65625 C 7.191406 -4.269531 6.179688 -3.1875 5.015625 -2.40625 C 3.847656 -1.625 2.734375 -1.289062 1.671875 -1.40625 C 0.484375 -1.570312 -0.304688 -2.019531 -0.703125 -2.75 C -1.109375 -3.488281 -1.242188 -4.332031 -1.109375 -5.28125 C -0.984375 -6.238281 -0.695312 -7.144531 -0.25 -8 C 0.0820312 -8.65625 0.550781 -9.265625 1.15625 -9.828125 C 1.769531 -10.390625 2.410156 -10.828125 3.078125 -11.140625 C 3.910156 -11.554688 4.742188 -11.742188 5.578125 -11.703125 C 6.410156 -11.671875 7.304688 -11.398438 8.265625 -10.890625 C 8.265625 -10.890625 8.273438 -10.910156 8.296875 -10.953125 C 8.296875 -11.054688 8.3125 -11.171875 8.34375 -11.296875 C 8.382812 -11.429688 8.46875 -11.550781 8.59375 -11.65625 C 8.757812 -11.78125 8.972656 -11.875 9.234375 -11.9375 C 9.492188 -12.007812 9.742188 -12.023438 9.984375 -11.984375 C 10.378906 -11.910156 10.625 -11.710938 10.71875 -11.390625 C 10.8125 -11.078125 10.828125 -10.734375 10.765625 -10.359375 C 10.703125 -9.984375 10.640625 -9.660156 10.578125 -9.390625 C 10.554688 -9.335938 10.546875 -9.289062 10.546875 -9.25 C 10.140625 -7.632812 10.28125 -6.503906 10.96875 -5.859375 C 11.65625 -5.210938 12.648438 -4.910156 13.953125 -4.953125 C 15.253906 -5.003906 16.632812 -5.28125 18.09375 -5.78125 C 19.5625 -6.28125 20.894531 -6.875 22.09375 -7.5625 C 23.289062 -8.257812 24.117188 -8.941406 24.578125 -9.609375 Z M 2.15625 -3.578125 C 2.664062 -3.234375 3.210938 -3.269531 3.796875 -3.6875 C 4.390625 -4.101562 4.960938 -4.703125 5.515625 -5.484375 C 6.078125 -6.265625 6.539062 -7.039062 6.90625 -7.8125 C 7.28125 -8.59375 7.488281 -9.179688 7.53125 -9.578125 C 6.363281 -10.203125 5.363281 -10.3125 4.53125 -9.90625 C 3.707031 -9.507812 3.0625 -8.867188 2.59375 -7.984375 C 2.125 -7.097656 1.851562 -6.21875 1.78125 -5.34375 C 1.707031 -4.476562 1.832031 -3.890625 2.15625 -3.578125 Z M 2.15625 -3.578125 "/></g></g></g><g fill="#737373" fill-opacity="1"><g transform="translate(227.613429, 85.182829)"><g><path d="M 8.15625 -19.296875 C 8.300781 -19.273438 8.398438 -19.171875 8.453125 -18.984375 C 8.503906 -18.804688 8.503906 -18.617188 8.453125 -18.421875 C 8.398438 -18.222656 8.300781 -18.125 8.15625 -18.125 L 2.796875 -18.171875 L 2.796875 -18.015625 C 2.773438 -17.234375 2.722656 -16.289062 2.640625 -15.1875 C 2.515625 -12.875 2.453125 -10.523438 2.453125 -8.140625 C 2.453125 -7.335938 2.507812 -6.222656 2.625 -4.796875 C 2.738281 -3.367188 2.96875 -2.097656 3.3125 -0.984375 C 3.332031 -0.898438 3.40625 -0.757812 3.53125 -0.5625 C 3.664062 -0.320312 3.800781 -0.0507812 3.9375 0.25 C 4.070312 0.5625 4.132812 0.8125 4.125 1 C 4.113281 1.195312 3.960938 1.257812 3.671875 1.1875 C 2.722656 0.875 2 0.113281 1.5 -1.09375 C 1 -2.300781 0.640625 -3.710938 0.421875 -5.328125 C 0.210938 -6.941406 0.101562 -8.515625 0.09375 -10.046875 C 0.0820312 -11.585938 0.101562 -12.832031 0.15625 -13.78125 C 0.1875 -14.4375 0.210938 -15.09375 0.234375 -15.75 C 0.253906 -16.570312 0.273438 -17.390625 0.296875 -18.203125 L -3.75 -18.265625 C -4.09375 -18.265625 -4.289062 -18.332031 -4.34375 -18.46875 C -4.394531 -18.601562 -4.359375 -18.738281 -4.234375 -18.875 C -4.117188 -19.007812 -3.957031 -19.09375 -3.75 -19.125 L 0.328125 -19.1875 L 0.59375 -23.109375 C 0.644531 -23.742188 0.695312 -24.382812 0.75 -25.03125 C 0.75 -25.375 0.757812 -25.71875 0.78125 -26.0625 C 0.78125 -26.570312 0.898438 -27.050781 1.140625 -27.5 C 1.429688 -27.882812 1.789062 -28.023438 2.21875 -27.921875 C 2.582031 -27.804688 2.785156 -27.554688 2.828125 -27.171875 C 2.867188 -26.535156 2.890625 -25.894531 2.890625 -25.25 C 2.890625 -24.882812 2.890625 -24.519531 2.890625 -24.15625 C 2.890625 -23.75 2.890625 -23.335938 2.890625 -22.921875 L 2.796875 -19.21875 Z M 8.15625 -19.296875 "/></g></g></g><g fill="#737373" fill-opacity="1"><g transform="translate(233.647943, 85.182829)"><g><path d="M 24.578125 -9.609375 C 24.773438 -9.878906 24.984375 -10.070312 25.203125 -10.1875 C 25.421875 -10.3125 25.550781 -10.3125 25.59375 -10.1875 C 25.644531 -10.070312 25.523438 -9.78125 25.234375 -9.3125 C 24.578125 -8.332031 23.613281 -7.40625 22.34375 -6.53125 C 21.082031 -5.65625 19.679688 -4.90625 18.140625 -4.28125 C 16.609375 -3.664062 15.109375 -3.257812 13.640625 -3.0625 C 12.179688 -2.863281 10.941406 -2.957031 9.921875 -3.34375 C 8.910156 -3.738281 8.285156 -4.507812 8.046875 -5.65625 C 7.191406 -4.269531 6.179688 -3.1875 5.015625 -2.40625 C 3.847656 -1.625 2.734375 -1.289062 1.671875 -1.40625 C 0.484375 -1.570312 -0.304688 -2.019531 -0.703125 -2.75 C -1.109375 -3.488281 -1.242188 -4.332031 -1.109375 -5.28125 C -0.984375 -6.238281 -0.695312 -7.144531 -0.25 -8 C 0.0820312 -8.65625 0.550781 -9.265625 1.15625 -9.828125 C 1.769531 -10.390625 2.410156 -10.828125 3.078125 -11.140625 C 3.910156 -11.554688 4.742188 -11.742188 5.578125 -11.703125 C 6.410156 -11.671875 7.304688 -11.398438 8.265625 -10.890625 C 8.265625 -10.890625 8.273438 -10.910156 8.296875 -10.953125 C 8.296875 -11.054688 8.3125 -11.171875 8.34375 -11.296875 C 8.382812 -11.429688 8.46875 -11.550781 8.59375 -11.65625 C 8.757812 -11.78125 8.972656 -11.875 9.234375 -11.9375 C 9.492188 -12.007812 9.742188 -12.023438 9.984375 -11.984375 C 10.378906 -11.910156 10.625 -11.710938 10.71875 -11.390625 C 10.8125 -11.078125 10.828125 -10.734375 10.765625 -10.359375 C 10.703125 -9.984375 10.640625 -9.660156 10.578125 -9.390625 C 10.554688 -9.335938 10.546875 -9.289062 10.546875 -9.25 C 10.140625 -7.632812 10.28125 -6.503906 10.96875 -5.859375 C 11.65625 -5.210938 12.648438 -4.910156 13.953125 -4.953125 C 15.253906 -5.003906 16.632812 -5.28125 18.09375 -5.78125 C 19.5625 -6.28125 20.894531 -6.875 22.09375 -7.5625 C 23.289062 -8.257812 24.117188 -8.941406 24.578125 -9.609375 Z M 2.15625 -3.578125 C 2.664062 -3.234375 3.210938 -3.269531 3.796875 -3.6875 C 4.390625 -4.101562 4.960938 -4.703125 5.515625 -5.484375 C 6.078125 -6.265625 6.539062 -7.039062 6.90625 -7.8125 C 7.28125 -8.59375 7.488281 -9.179688 7.53125 -9.578125 C 6.363281 -10.203125 5.363281 -10.3125 4.53125 -9.90625 C 3.707031 -9.507812 3.0625 -8.867188 2.59375 -7.984375 C 2.125 -7.097656 1.851562 -6.21875 1.78125 -5.34375 C 1.707031 -4.476562 1.832031 -3.890625 2.15625 -3.578125 Z M 2.15625 -3.578125 "/></g></g></g><g fill="#737373" fill-opacity="1"><g transform="translate(257.420247, 85.182829)"><g><path d="M 20.265625 -6.203125 C 20.265625 -6.203125 20.273438 -6.210938 20.296875 -6.234375 C 20.398438 -6.335938 20.640625 -6.5625 21.015625 -6.90625 C 21.390625 -7.25 21.78125 -7.570312 22.1875 -7.875 C 22.59375 -8.175781 22.890625 -8.332031 23.078125 -8.34375 C 23.273438 -8.351562 23.222656 -8.078125 22.921875 -7.515625 C 22.898438 -7.453125 22.847656 -7.367188 22.765625 -7.265625 C 22.679688 -7.160156 22.601562 -7.050781 22.53125 -6.9375 C 22.507812 -6.914062 22.484375 -6.890625 22.453125 -6.859375 C 20.722656 -5.054688 19.375 -3.796875 18.40625 -3.078125 C 17.445312 -2.359375 16.503906 -2.035156 15.578125 -2.109375 C 14.597656 -2.210938 13.9375 -2.664062 13.59375 -3.46875 C 13.257812 -4.269531 13.113281 -5.257812 13.15625 -6.4375 C 13.207031 -7.625 13.3125 -8.816406 13.46875 -10.015625 C 13.632812 -11.273438 13.71875 -12.34375 13.71875 -13.21875 C 13.71875 -14.101562 13.472656 -14.609375 12.984375 -14.734375 C 12.597656 -14.753906 12.175781 -14.3125 11.71875 -13.40625 C 11.257812 -12.5 10.816406 -11.425781 10.390625 -10.1875 C 9.972656 -8.945312 9.617188 -7.828125 9.328125 -6.828125 C 9.054688 -5.992188 8.875 -5.445312 8.78125 -5.1875 C 8.613281 -4.789062 8.335938 -4.535156 7.953125 -4.421875 C 7.566406 -4.316406 7.179688 -4.347656 6.796875 -4.515625 C 6.535156 -4.640625 6.390625 -4.835938 6.359375 -5.109375 C 6.285156 -5.691406 6.257812 -6.300781 6.28125 -6.9375 C 6.28125 -7.351562 6.269531 -7.753906 6.25 -8.140625 C 6.25 -8.242188 6.25 -8.367188 6.25 -8.515625 C 6.269531 -8.703125 6.273438 -8.894531 6.265625 -9.09375 C 6.253906 -9.289062 6.234375 -9.460938 6.203125 -9.609375 C 6.171875 -9.753906 6.101562 -9.835938 6 -9.859375 C 5.800781 -9.859375 5.5625 -9.628906 5.28125 -9.171875 C 5.007812 -8.710938 4.726562 -8.144531 4.4375 -7.46875 C 4.15625 -6.800781 3.90625 -6.195312 3.6875 -5.65625 C 3.519531 -5.1875 3.398438 -4.867188 3.328125 -4.703125 C 3.285156 -4.628906 3.25 -4.566406 3.21875 -4.515625 C 3 -4.054688 2.769531 -3.609375 2.53125 -3.171875 C 2.332031 -2.804688 2.023438 -2.585938 1.609375 -2.515625 C 0.679688 -2.390625 0.179688 -2.753906 0.109375 -3.609375 C 0.0546875 -5.804688 0.0078125 -8.007812 -0.03125 -10.21875 C -0.0078125 -10.644531 0.171875 -10.914062 0.515625 -11.03125 C 0.859375 -11.15625 1.210938 -11.15625 1.578125 -11.03125 C 1.941406 -10.914062 2.144531 -10.695312 2.1875 -10.375 C 2.21875 -10.226562 2.234375 -10.066406 2.234375 -9.890625 C 2.328125 -8.953125 2.441406 -8.484375 2.578125 -8.484375 C 2.710938 -8.484375 3.019531 -8.890625 3.5 -9.703125 C 3.75 -10.128906 4.003906 -10.546875 4.265625 -10.953125 C 4.585938 -11.515625 5.003906 -12.003906 5.515625 -12.421875 C 6.078125 -12.785156 6.613281 -12.894531 7.125 -12.75 C 7.632812 -12.601562 8.039062 -12.226562 8.34375 -11.625 C 8.53125 -11.226562 8.695312 -11.066406 8.84375 -11.140625 C 8.84375 -11.140625 8.859375 -11.148438 8.890625 -11.171875 C 8.929688 -11.328125 9.125 -11.753906 9.46875 -12.453125 C 9.8125 -13.160156 10.269531 -13.9375 10.84375 -14.78125 C 11.414062 -15.625 12.054688 -16.3125 12.765625 -16.84375 C 13.253906 -17.1875 13.773438 -17.375 14.328125 -17.40625 C 14.890625 -17.445312 15.382812 -17.296875 15.8125 -16.953125 C 16.238281 -16.609375 16.492188 -16.007812 16.578125 -15.15625 C 16.617188 -14.476562 16.570312 -13.515625 16.4375 -12.265625 C 16.300781 -11.023438 16.144531 -9.804688 15.96875 -8.609375 C 15.832031 -7.492188 15.738281 -6.628906 15.6875 -6.015625 C 15.632812 -4.753906 15.851562 -4.066406 16.34375 -3.953125 C 16.832031 -3.847656 17.441406 -4.039062 18.171875 -4.53125 C 18.898438 -5.03125 19.597656 -5.585938 20.265625 -6.203125 Z M 20.265625 -6.203125 "/></g></g></g><g fill="#737373" fill-opacity="1"><g transform="translate(278.964948, 85.182829)"><g><path d="M 24.578125 -9.609375 C 24.773438 -9.878906 24.984375 -10.070312 25.203125 -10.1875 C 25.421875 -10.3125 25.550781 -10.3125 25.59375 -10.1875 C 25.644531 -10.070312 25.523438 -9.78125 25.234375 -9.3125 C 24.578125 -8.332031 23.613281 -7.40625 22.34375 -6.53125 C 21.082031 -5.65625 19.679688 -4.90625 18.140625 -4.28125 C 16.609375 -3.664062 15.109375 -3.257812 13.640625 -3.0625 C 12.179688 -2.863281 10.941406 -2.957031 9.921875 -3.34375 C 8.910156 -3.738281 8.285156 -4.507812 8.046875 -5.65625 C 7.191406 -4.269531 6.179688 -3.1875 5.015625 -2.40625 C 3.847656 -1.625 2.734375 -1.289062 1.671875 -1.40625 C 0.484375 -1.570312 -0.304688 -2.019531 -0.703125 -2.75 C -1.109375 -3.488281 -1.242188 -4.332031 -1.109375 -5.28125 C -0.984375 -6.238281 -0.695312 -7.144531 -0.25 -8 C 0.0820312 -8.65625 0.550781 -9.265625 1.15625 -9.828125 C 1.769531 -10.390625 2.410156 -10.828125 3.078125 -11.140625 C 3.910156 -11.554688 4.742188 -11.742188 5.578125 -11.703125 C 6.410156 -11.671875 7.304688 -11.398438 8.265625 -10.890625 C 8.265625 -10.890625 8.273438 -10.910156 8.296875 -10.953125 C 8.296875 -11.054688 8.3125 -11.171875 8.34375 -11.296875 C 8.382812 -11.429688 8.46875 -11.550781 8.59375 -11.65625 C 8.757812 -11.78125 8.972656 -11.875 9.234375 -11.9375 C 9.492188 -12.007812 9.742188 -12.023438 9.984375 -11.984375 C 10.378906 -11.910156 10.625 -11.710938 10.71875 -11.390625 C 10.8125 -11.078125 10.828125 -10.734375 10.765625 -10.359375 C 10.703125 -9.984375 10.640625 -9.660156 10.578125 -9.390625 C 10.554688 -9.335938 10.546875 -9.289062 10.546875 -9.25 C 10.140625 -7.632812 10.28125 -6.503906 10.96875 -5.859375 C 11.65625 -5.210938 12.648438 -4.910156 13.953125 -4.953125 C 15.253906 -5.003906 16.632812 -5.28125 18.09375 -5.78125 C 19.5625 -6.28125 20.894531 -6.875 22.09375 -7.5625 C 23.289062 -8.257812 24.117188 -8.941406 24.578125 -9.609375 Z M 2.15625 -3.578125 C 2.664062 -3.234375 3.210938 -3.269531 3.796875 -3.6875 C 4.390625 -4.101562 4.960938 -4.703125 5.515625 -5.484375 C 6.078125 -6.265625 6.539062 -7.039062 6.90625 -7.8125 C 7.28125 -8.59375 7.488281 -9.179688 7.53125 -9.578125 C 6.363281 -10.203125 5.363281 -10.3125 4.53125 -9.90625 C 3.707031 -9.507812 3.0625 -8.867188 2.59375 -7.984375 C 2.125 -7.097656 1.851562 -6.21875 1.78125 -5.34375 C 1.707031 -4.476562 1.832031 -3.890625 2.15625 -3.578125 Z M 2.15625 -3.578125 "/></g></g></g><g fill="#737373" fill-opacity="1"><g transform="translate(114.438732, 118.805897)"><g><path d="M 0.40625 -2.28125 L 0.40625 -3.015625 L 2.78125 -3.015625 L 2.78125 -2.28125 Z M 0.40625 -2.28125 "/></g></g></g><g fill="#737373" fill-opacity="1"><g transform="translate(119.12228, 118.805897)"><g/></g></g><g fill="#737373" fill-opacity="1"><g transform="translate(123.192809, 118.805897)"><g><path d="M 1.796875 0 L 0.96875 0 L 0.96875 -7.0625 L 4.90625 -7.0625 L 4.90625 -6.328125 L 1.796875 -6.328125 L 1.796875 -3.75 L 4.71875 -3.75 L 4.71875 -3.015625 L 1.796875 -3.015625 Z M 1.796875 0 "/></g></g></g><g fill="#737373" fill-opacity="1"><g transform="translate(129.797475, 118.805897)"><g><path d="M 1.796875 -2.9375 L 1.796875 0 L 0.96875 0 L 0.96875 -7.0625 L 2.90625 -7.0625 C 3.769531 -7.0625 4.410156 -6.894531 4.828125 -6.5625 C 5.242188 -6.226562 5.453125 -5.726562 5.453125 -5.0625 C 5.453125 -4.132812 4.976562 -3.503906 4.03125 -3.171875 L 5.9375 0 L 4.96875 0 L 3.265625 -2.9375 Z M 1.796875 -3.640625 L 2.921875 -3.640625 C 3.492188 -3.640625 3.914062 -3.753906 4.1875 -3.984375 C 4.457031 -4.210938 4.59375 -4.554688 4.59375 -5.015625 C 4.59375 -5.484375 4.453125 -5.820312 4.171875 -6.03125 C 3.898438 -6.238281 3.460938 -6.34375 2.859375 -6.34375 L 1.796875 -6.34375 Z M 1.796875 -3.640625 "/></g></g></g><g fill="#737373" fill-opacity="1"><g transform="translate(137.410969, 118.805897)"><g><path d="M 7.09375 -3.546875 C 7.09375 -2.410156 6.804688 -1.519531 6.234375 -0.875 C 5.671875 -0.226562 4.878906 0.09375 3.859375 0.09375 C 2.816406 0.09375 2.015625 -0.222656 1.453125 -0.859375 C 0.890625 -1.492188 0.609375 -2.390625 0.609375 -3.546875 C 0.609375 -4.703125 0.890625 -5.59375 1.453125 -6.21875 C 2.015625 -6.851562 2.820312 -7.171875 3.875 -7.171875 C 4.882812 -7.171875 5.671875 -6.847656 6.234375 -6.203125 C 6.804688 -5.554688 7.09375 -4.671875 7.09375 -3.546875 Z M 1.46875 -3.546875 C 1.46875 -2.585938 1.671875 -1.859375 2.078125 -1.359375 C 2.484375 -0.867188 3.078125 -0.625 3.859375 -0.625 C 4.640625 -0.625 5.226562 -0.867188 5.625 -1.359375 C 6.03125 -1.847656 6.234375 -2.578125 6.234375 -3.546875 C 6.234375 -4.492188 6.03125 -5.210938 5.625 -5.703125 C 5.226562 -6.191406 4.644531 -6.4375 3.875 -6.4375 C 3.082031 -6.4375 2.484375 -6.1875 2.078125 -5.6875 C 1.671875 -5.195312 1.46875 -4.484375 1.46875 -3.546875 Z M 1.46875 -3.546875 "/></g></g></g><g fill="#737373" fill-opacity="1"><g transform="translate(146.612523, 118.805897)"><g><path d="M 6.484375 0 L 5.546875 0 L 1.6875 -5.921875 L 1.65625 -5.921875 C 1.707031 -5.222656 1.734375 -4.585938 1.734375 -4.015625 L 1.734375 0 L 0.96875 0 L 0.96875 -7.0625 L 1.890625 -7.0625 L 5.75 -1.15625 L 5.78125 -1.15625 C 5.78125 -1.25 5.765625 -1.53125 5.734375 -2 C 5.710938 -2.46875 5.707031 -2.804688 5.71875 -3.015625 L 5.71875 -7.0625 L 6.484375 -7.0625 Z M 6.484375 0 "/></g></g></g><g fill="#737373" fill-opacity="1"><g transform="translate(155.567903, 118.805897)"><g><path d="M 3.140625 0 L 2.328125 0 L 2.328125 -6.328125 L 0.09375 -6.328125 L 0.09375 -7.0625 L 5.375 -7.0625 L 5.375 -6.328125 L 3.140625 -6.328125 Z M 3.140625 0 "/></g></g></g><g fill="#737373" fill-opacity="1"><g transform="translate(162.539416, 118.805897)"><g><path d="M 4.90625 0 L 0.96875 0 L 0.96875 -7.0625 L 4.90625 -7.0625 L 4.90625 -6.328125 L 1.796875 -6.328125 L 1.796875 -4.0625 L 4.71875 -4.0625 L 4.71875 -3.328125 L 1.796875 -3.328125 L 1.796875 -0.734375 L 4.90625 -0.734375 Z M 4.90625 0 "/></g></g></g><g fill="#737373" fill-opacity="1"><g transform="translate(169.539888, 118.805897)"><g><path d="M 6.484375 0 L 5.546875 0 L 1.6875 -5.921875 L 1.65625 -5.921875 C 1.707031 -5.222656 1.734375 -4.585938 1.734375 -4.015625 L 1.734375 0 L 0.96875 0 L 0.96875 -7.0625 L 1.890625 -7.0625 L 5.75 -1.15625 L 5.78125 -1.15625 C 5.78125 -1.25 5.765625 -1.53125 5.734375 -2 C 5.710938 -2.46875 5.707031 -2.804688 5.71875 -3.015625 L 5.71875 -7.0625 L 6.484375 -7.0625 Z M 6.484375 0 "/></g></g></g><g fill="#737373" fill-opacity="1"><g transform="translate(178.495265, 118.805897)"><g><path d="M 6.609375 -3.59375 C 6.609375 -2.425781 6.289062 -1.535156 5.65625 -0.921875 C 5.019531 -0.304688 4.109375 0 2.921875 0 L 0.96875 0 L 0.96875 -7.0625 L 3.140625 -7.0625 C 4.234375 -7.0625 5.082031 -6.753906 5.6875 -6.140625 C 6.300781 -5.535156 6.609375 -4.6875 6.609375 -3.59375 Z M 5.734375 -3.5625 C 5.734375 -4.488281 5.5 -5.179688 5.03125 -5.640625 C 4.570312 -6.109375 3.890625 -6.34375 2.984375 -6.34375 L 1.796875 -6.34375 L 1.796875 -0.703125 L 2.796875 -0.703125 C 3.773438 -0.703125 4.507812 -0.941406 5 -1.421875 C 5.488281 -1.910156 5.734375 -2.625 5.734375 -3.5625 Z M 5.734375 -3.5625 "/></g></g></g><g fill="#737373" fill-opacity="1"><g transform="translate(187.204469, 118.805897)"><g/></g></g><g fill="#737373" fill-opacity="1"><g transform="translate(191.274996, 118.805897)"><g><path d="M 6.609375 -3.59375 C 6.609375 -2.425781 6.289062 -1.535156 5.65625 -0.921875 C 5.019531 -0.304688 4.109375 0 2.921875 0 L 0.96875 0 L 0.96875 -7.0625 L 3.140625 -7.0625 C 4.234375 -7.0625 5.082031 -6.753906 5.6875 -6.140625 C 6.300781 -5.535156 6.609375 -4.6875 6.609375 -3.59375 Z M 5.734375 -3.5625 C 5.734375 -4.488281 5.5 -5.179688 5.03125 -5.640625 C 4.570312 -6.109375 3.890625 -6.34375 2.984375 -6.34375 L 1.796875 -6.34375 L 1.796875 -0.703125 L 2.796875 -0.703125 C 3.773438 -0.703125 4.507812 -0.941406 5 -1.421875 C 5.488281 -1.910156 5.734375 -2.625 5.734375 -3.5625 Z M 5.734375 -3.5625 "/></g></g></g><g fill="#737373" fill-opacity="1"><g transform="translate(199.9842, 118.805897)"><g><path d="M 4.90625 0 L 0.96875 0 L 0.96875 -7.0625 L 4.90625 -7.0625 L 4.90625 -6.328125 L 1.796875 -6.328125 L 1.796875 -4.0625 L 4.71875 -4.0625 L 4.71875 -3.328125 L 1.796875 -3.328125 L 1.796875 -0.734375 L 4.90625 -0.734375 Z M 4.90625 0 "/></g></g></g><g fill="#737373" fill-opacity="1"><g transform="translate(206.984671, 118.805897)"><g><path d="M 5 -7.0625 L 5.890625 -7.0625 L 3.34375 0 L 2.53125 0 L 0 -7.0625 L 0.875 -7.0625 L 2.484375 -2.484375 C 2.671875 -1.960938 2.820312 -1.457031 2.9375 -0.96875 C 3.050781 -1.488281 3.203125 -2.003906 3.390625 -2.515625 Z M 5 -7.0625 "/></g></g></g><g fill="#737373" fill-opacity="1"><g transform="translate(214.371297, 118.805897)"><g><path d="M 4.90625 0 L 0.96875 0 L 0.96875 -7.0625 L 4.90625 -7.0625 L 4.90625 -6.328125 L 1.796875 -6.328125 L 1.796875 -4.0625 L 4.71875 -4.0625 L 4.71875 -3.328125 L 1.796875 -3.328125 L 1.796875 -0.734375 L 4.90625 -0.734375 Z M 4.90625 0 "/></g></g></g><g fill="#737373" fill-opacity="1"><g transform="translate(221.371768, 118.805897)"><g><path d="M 0.96875 0 L 0.96875 -7.0625 L 1.796875 -7.0625 L 1.796875 -0.75 L 4.90625 -0.75 L 4.90625 0 Z M 0.96875 0 "/></g></g></g><g fill="#737373" fill-opacity="1"><g transform="translate(228.0054, 118.805897)"><g><path d="M 4.90625 0 L 0.96875 0 L 0.96875 -7.0625 L 4.90625 -7.0625 L 4.90625 -6.328125 L 1.796875 -6.328125 L 1.796875 -4.0625 L 4.71875 -4.0625 L 4.71875 -3.328125 L 1.796875 -3.328125 L 1.796875 -0.734375 L 4.90625 -0.734375 Z M 4.90625 0 "/></g></g></g><g fill="#737373" fill-opacity="1"><g transform="translate(235.005878, 118.805897)"><g><path d="M 7.09375 -3.546875 C 7.09375 -2.410156 6.804688 -1.519531 6.234375 -0.875 C 5.671875 -0.226562 4.878906 0.09375 3.859375 0.09375 C 2.816406 0.09375 2.015625 -0.222656 1.453125 -0.859375 C 0.890625 -1.492188 0.609375 -2.390625 0.609375 -3.546875 C 0.609375 -4.703125 0.890625 -5.59375 1.453125 -6.21875 C 2.015625 -6.851562 2.820312 -7.171875 3.875 -7.171875 C 4.882812 -7.171875 5.671875 -6.847656 6.234375 -6.203125 C 6.804688 -5.554688 7.09375 -4.671875 7.09375 -3.546875 Z M 1.46875 -3.546875 C 1.46875 -2.585938 1.671875 -1.859375 2.078125 -1.359375 C 2.484375 -0.867188 3.078125 -0.625 3.859375 -0.625 C 4.640625 -0.625 5.226562 -0.867188 5.625 -1.359375 C 6.03125 -1.847656 6.234375 -2.578125 6.234375 -3.546875 C 6.234375 -4.492188 6.03125 -5.210938 5.625 -5.703125 C 5.226562 -6.191406 4.644531 -6.4375 3.875 -6.4375 C 3.082031 -6.4375 2.484375 -6.1875 2.078125 -5.6875 C 1.671875 -5.195312 1.46875 -4.484375 1.46875 -3.546875 Z M 1.46875 -3.546875 "/></g></g></g><g fill="#737373" fill-opacity="1"><g transform="translate(244.207435, 118.805897)"><g><path d="M 5.453125 -5 C 5.453125 -4.289062 5.207031 -3.742188 4.71875 -3.359375 C 4.226562 -2.972656 3.53125 -2.78125 2.625 -2.78125 L 1.796875 -2.78125 L 1.796875 0 L 0.96875 0 L 0.96875 -7.0625 L 2.796875 -7.0625 C 4.566406 -7.0625 5.453125 -6.375 5.453125 -5 Z M 1.796875 -3.484375 L 2.53125 -3.484375 C 3.257812 -3.484375 3.785156 -3.597656 4.109375 -3.828125 C 4.429688 -4.066406 4.59375 -4.445312 4.59375 -4.96875 C 4.59375 -5.4375 4.441406 -5.78125 4.140625 -6 C 3.835938 -6.226562 3.359375 -6.34375 2.703125 -6.34375 L 1.796875 -6.34375 Z M 1.796875 -3.484375 "/></g></g></g><g fill="#737373" fill-opacity="1"><g transform="translate(251.661644, 118.805897)"><g><path d="M 4.90625 0 L 0.96875 0 L 0.96875 -7.0625 L 4.90625 -7.0625 L 4.90625 -6.328125 L 1.796875 -6.328125 L 1.796875 -4.0625 L 4.71875 -4.0625 L 4.71875 -3.328125 L 1.796875 -3.328125 L 1.796875 -0.734375 L 4.90625 -0.734375 Z M 4.90625 0 "/></g></g></g><g fill="#737373" fill-opacity="1"><g transform="translate(258.662121, 118.805897)"><g><path d="M 1.796875 -2.9375 L 1.796875 0 L 0.96875 0 L 0.96875 -7.0625 L 2.90625 -7.0625 C 3.769531 -7.0625 4.410156 -6.894531 4.828125 -6.5625 C 5.242188 -6.226562 5.453125 -5.726562 5.453125 -5.0625 C 5.453125 -4.132812 4.976562 -3.503906 4.03125 -3.171875 L 5.9375 0 L 4.96875 0 L 3.265625 -2.9375 Z M 1.796875 -3.640625 L 2.921875 -3.640625 C 3.492188 -3.640625 3.914062 -3.753906 4.1875 -3.984375 C 4.457031 -4.210938 4.59375 -4.554688 4.59375 -5.015625 C 4.59375 -5.484375 4.453125 -5.820312 4.171875 -6.03125 C 3.898438 -6.238281 3.460938 -6.34375 2.859375 -6.34375 L 1.796875 -6.34375 Z M 1.796875 -3.640625 "/></g></g></g><g fill="#737373" fill-opacity="1"><g transform="translate(266.275619, 118.805897)"><g><path d="M 0.40625 -2.28125 L 0.40625 -3.015625 L 2.78125 -3.015625 L 2.78125 -2.28125 Z M 0.40625 -2.28125 "/></g></g></g></svg>