<svg width="128" height="128" viewBox="0 0 128 128" fill="none" xmlns="http://www.w3.org/2000/svg">
<path d="M126.615 72.31L119.581 50.664L105.641 7.762C105.101 6.1 103.201 5.692 101.987 6.532C101.587 6.808 101.263 7.385 101.085 7.93L87.144 51H40.856L31.62 22.41L26.917 7.847C26.8337 7.57354 26.7082 7.31476 26.545 7.08C26.467 6.976 26.365 6.886 26.275 6.8C25.338 5.91 23.81 5.924 22.915 6.872C22.6641 7.12381 22.4739 7.42957 22.359 7.766L8.41905 50.666L5.47305 59.734L1.38505 72.31C1.13949 73.0707 1.08864 73.8809 1.23713 74.6663C1.38563 75.4518 1.72873 76.1874 2.23505 76.806C2.49505 77.123 2.78505 77.419 3.12505 77.666L64 121.895L124.874 77.668C125.693 77.0738 126.303 76.2352 126.616 75.2726C126.928 74.3101 126.928 73.2732 126.614 72.311L126.615 72.31Z" fill="#E24329"/>
</svg>
