<svg width="128" height="128" viewBox="0 0 128 128" fill="none" xmlns="http://www.w3.org/2000/svg">
<path d="M39.2671 108.97L38.9831 108.403C38.4161 107.268 38.4161 106.133 38.7001 104.714H8.05905L53.4541 24.138L72.4641 58.468L78.7051 53.928L59.6951 19.598C59.4121 19.031 57.1421 15.627 53.4541 15.627C51.7511 15.627 49.1981 16.194 47.2121 19.883L1.25005 101.31C0.966052 102.16 -1.01995 105.85 0.682052 108.97C1.81705 110.672 3.51905 112.375 7.49205 112.375H46.0781C42.1051 112.375 40.1191 110.672 39.2681 108.97H39.2671ZM126.652 101.593L89.7691 35.203C89.2021 34.635 87.2151 30.946 83.5271 30.946C81.8251 30.946 79.2711 31.798 77.2851 35.202L72.4621 43.146V58.467L83.5271 39.457L120.127 104.713H106.224C106.457 106.064 106.259 107.454 105.657 108.686L105.373 108.969C103.671 112.09 99.4151 112.374 98.8471 112.374H120.41C121.261 112.374 125.233 112.09 127.22 108.969C128.07 107.551 128.638 104.997 126.652 101.593V101.593ZM106.508 108.97V108.686L106.792 108.119C107.075 106.984 107.359 105.849 107.075 104.714L105.941 101.31L77.0001 50.808L72.7451 43.148H72.4611L68.2051 50.808L39.2661 101.31L38.1311 104.714C37.8565 106.157 38.0557 107.65 38.6991 108.97C39.8341 110.672 41.5361 112.375 45.5091 112.375H99.4151C100.266 112.375 104.522 112.091 106.508 108.97V108.97ZM72.4621 58.468L98.8481 104.714H46.0761L72.4621 58.468Z" fill="black"/>
</svg>
